[Header]
FileType HTR
DataType HTRS
FileVersion 1
NumSegments 64
NumFrames 4
DataFrameRate 30
EulerRotationOrder ZYX
CalibrationUnits mm
RotationUnits Degrees
GlobalAxisofGravity Y
BoneLengthAxis Y
ScaleFactor 1.0
[SegmentNames&Hierarchy]
Hips	GLOBAL
Spine	Hips
Spine1	Spine
Spine2	Spine1
Neck	Spine2
Head	Neck
LeftEye	Head
RightEye	Head
LeftShoulder	Spine2
LeftArm	LeftShoulder
LeftForeArm	LeftArm
LeftHand	LeftForeArm
LeftHandThumb1	LeftHand
LeftHandThumb2	LeftHandThumb1
LeftHandThumb3	LeftHandThumb2
LeftHandThumb4	LeftHandThumb3
LeftHandIndex1	LeftHand
LeftHandIndex2	LeftHandIndex1
LeftHandIndex3	LeftHandIndex2
LeftHandIndex4	LeftHandIndex3
LeftHandMiddle1	LeftHand
LeftHandMiddle2	LeftHandMiddle1
LeftHandMiddle3	LeftHandMiddle2
LeftHandMiddle4	LeftHandMiddle3
LeftHandRing1	LeftHand
LeftHandRing2	LeftHandRing1
LeftHandRing3	LeftHandRing2
LeftHandRing4	LeftHandRing3
LeftHandPinky1	LeftHand
LeftHandPinky2	LeftHandPinky1
LeftHandPinky3	LeftHandPinky2
LeftHandPinky4	LeftHandPinky3
RightShoulder	Spine2
RightArm	RightShoulder
RightForeArm	RightArm
RightHand	RightForeArm
RightHandPinky1	RightHand
RightHandPinky2	RightHandPinky1
RightHandPinky3	RightHandPinky2
RightHandPinky4	RightHandPinky3
RightHandRing1	RightHand
RightHandRing2	RightHandRing1
RightHandRing3	RightHandRing2
RightHandRing4	RightHandRing3
RightHandMiddle1	RightHand
RightHandMiddle2	RightHandMiddle1
RightHandMiddle3	RightHandMiddle2
RightHandMiddle4	RightHandMiddle3
RightHandIndex1	RightHand
RightHandIndex2	RightHandIndex1
RightHandIndex3	RightHandIndex2
RightHandIndex4	RightHandIndex3
RightHandThumb1	RightHand
RightHandThumb2	RightHandThumb1
RightHandThumb3	RightHandThumb2
RightHandThumb4	RightHandThumb3
LeftUpLeg	Hips
LeftLeg	LeftUpLeg
LeftFoot	LeftLeg
LeftToeBase	LeftFoot
RightUpLeg	Hips
RightLeg	RightUpLeg
RightFoot	RightLeg
RightToeBase	RightFoot
[BasePosition]
Hips	0	0	0	0	0	0	1
Spine	0	0	0	0	0	0	1
Spine1	0	0	0	0	0	0	1
Spine2	0	0	0	0	0	0	1
Neck	0	0	0	0	0	0	1
Head	0	0	0	0	0	0	1
LeftEye	0	0	0	0	0	0	1
RightEye	0	0	0	0	0	0	1
LeftShoulder	0	0	0	0	0	0	1
LeftArm	0	0	0	0	0	0	1
LeftForeArm	0	0	0	0	0	0	1
LeftHand	0	0	0	0	0	0	1
LeftHandThumb1	0	0	0	0	0	0	1
LeftHandThumb2	0	0	0	0	0	0	1
LeftHandThumb3	0	0	0	0	0	0	1
LeftHandThumb4	0	0	0	0	0	0	1
LeftHandIndex1	0	0	0	0	0	0	1
LeftHandIndex2	0	0	0	0	0	0	1
LeftHandIndex3	0	0	0	0	0	0	1
LeftHandIndex4	0	0	0	0	0	0	1
LeftHandMiddle1	0	0	0	0	0	0	1
LeftHandMiddle2	0	0	0	0	0	0	1
LeftHandMiddle3	0	0	0	0	0	0	1
LeftHandMiddle4	0	0	0	0	0	0	1
LeftHandRing1	0	0	0	0	0	0	1
LeftHandRing2	0	0	0	0	0	0	1
LeftHandRing3	0	0	0	0	0	0	1
LeftHandRing4	0	0	0	0	0	0	1
LeftHandPinky1	0	0	0	0	0	0	1
LeftHandPinky2	0	0	0	0	0	0	1
LeftHandPinky3	0	0	0	0	0	0	1
LeftHandPinky4	0	0	0	0	0	0	1
RightShoulder	0	0	0	0	0	0	1
RightArm	0	0	0	0	0	0	1
RightForeArm	0	0	0	0	0	0	1
RightHand	0	0	0	0	0	0	1
RightHandPinky1	0	0	0	0	0	0	1
RightHandPinky2	0	0	0	0	0	0	1
RightHandPinky3	0	0	0	0	0	0	1
RightHandPinky4	0	0	0	0	0	0	1
RightHandRing1	0	0	0	0	0	0	1
RightHandRing2	0	0	0	0	0	0	1
RightHandRing3	0	0	0	0	0	0	1
RightHandRing4	0	0	0	0	0	0	1
RightHandMiddle1	0	0	0	0	0	0	1
RightHandMiddle2	0	0	0	0	0	0	1
RightHandMiddle3	0	0	0	0	0	0	1
RightHandMiddle4	0	0	0	0	0	0	1
RightHandIndex1	0	0	0	0	0	0	1
RightHandIndex2	0	0	0	0	0	0	1
RightHandIndex3	0	0	0	0	0	0	1
RightHandIndex4	0	0	0	0	0	0	1
RightHandThumb1	0	0	0	0	0	0	1
RightHandThumb2	0	0	0	0	0	0	1
RightHandThumb3	0	0	0	0	0	0	1
RightHandThumb4	0	0	0	0	0	0	1
LeftUpLeg	0	0	0	0	0	0	1
LeftLeg	0	0	0	0	0	0	1
LeftFoot	0	0	0	0	0	0	1
LeftToeBase	0	0	0	0	0	0	1
RightUpLeg	0	0	0	0	0	0	1
RightLeg	0	0	0	0	0	0	1
RightFoot	0	0	0	0	0	0	1
RightToeBase	0	0	0	0	0	0	1
[Hips]
157	-4.817621231	1034.47168	23.38146591	-3.478271008	-5.567430973	-2.868182898	1.0
158	-4.815386295	1034.453857	23.48629951	-3.486612558	-5.578614712	-2.863750935	1.0
159	-4.818067074	1034.428345	23.58212662	-3.501302004	-5.585144997	-2.859615564	1.0
160	-4.825323105	1034.410645	23.66972733	-3.519716024	-5.588896751	-2.858247519	1.0
[Spine]
157	0	101.8159943	1.315000057	3.379324436	1.492501736	2.933834076	1.0
158	0	101.8159943	1.315000057	3.394094944	1.488118887	2.93807888	1.0
159	0	101.8159943	1.315000057	3.408701897	1.488698721	2.941907644	1.0
160	0	101.8159943	1.315000057	3.423375607	1.494667292	2.945906401	1.0
[Spine1]
157	0	100.8349991	-10.00800037	1.141390324	0.3556336462	1.617414713	1.0
158	0	100.8349991	-10.00800037	1.144480467	0.3540224135	1.618674874	1.0
159	0	100.8349991	-10.00800037	1.147612095	0.3544600308	1.619916439	1.0
160	0	100.8349991	-10.00800037	1.150804877	0.3570829332	1.621208429	1.0
[Spine2]
157	0	91	-13.73399925	1.116142273	0.3785175979	1.62024796	1.0
158	0	91	-13.73399925	1.119244337	0.3769069016	1.621474147	1.0
159	0	91	-13.73399925	1.122389197	0.3773391247	1.622677803	1.0
160	0	91	-13.73399925	1.125594974	0.3799521029	1.623925328	1.0
[Neck]
157	0	166.7169952	-25.16200066	5.619739056	-0.1955694407	0.5123040676	1.0
158	0	166.7169952	-25.16200066	5.645669937	-0.1924200803	0.5047771931	1.0
159	0	166.7169952	-25.16200066	5.671411037	-0.1890019923	0.4965858161	1.0
160	0	166.7169952	-25.16200066	5.695347786	-0.1862267256	0.4882925749	1.0
[Head]
157	0	96.17900085	16.84999847	-8.003710747	1.145991921	-0.1167517379	1.0
158	0	96.17900085	16.84999847	-8.005415916	1.147462845	-0.1151597425	1.0
159	0	96.17900085	16.84999847	-8.004680634	1.152386904	-0.1139207333	1.0
160	0	96.17900085	16.84999847	-8.003892899	1.15725255	-0.1125570238	1.0
[LeftEye]
157	30.6760006	64.09500122	92.83599854	0	0	0	1.0
158	30.6760006	64.09500122	92.83599854	0	0	0	1.0
159	30.6760006	64.09500122	92.83599854	0	0	0	1.0
160	30.6760006	64.09500122	92.83599854	0	0	0	1.0
[RightEye]
157	-30.6760006	64.09500122	92.83499908	0	0	0	1.0
158	-30.6760006	64.09500122	92.83499908	0	0	0	1.0
159	-30.6760006	64.09500122	92.83499908	0	0	0	1.0
160	-30.6760006	64.09500122	92.83499908	0	0	0	1.0
[LeftShoulder]
157	45.70400238	109.4599991	-26.28000069	4.827994347	-16.36925888	-12.9429388	1.0
158	45.70400238	109.4599991	-26.28000069	4.832611084	-16.39348412	-12.95941734	1.0
159	45.70400238	109.4599991	-26.28000069	4.837799072	-16.42270279	-12.97713566	1.0
160	45.70400238	109.4599991	-26.28000069	4.842927456	-16.45117569	-12.99477482	1.0
[LeftArm]
157	105.923996	-5.24600029	-22.32099915	20.04776001	-3.619352341	-71.45287323	1.0
158	105.923996	-5.24600029	-22.32099915	20.04114723	-3.641679525	-71.43856812	1.0
159	105.923996	-5.24600029	-22.32099915	20.03963089	-3.659389257	-71.4203949	1.0
160	105.923996	-5.24600029	-22.32099915	20.04075432	-3.675889492	-71.39906311	1.0
[LeftForeArm]
157	278.414978	-0.0009999999311	0	-1.195422738e-05	-1.507488847	-0.0001926009136	1.0
158	278.414978	-0.0009999999311	0	-1.360054466e-05	-1.503861904	-0.0001938852511	1.0
159	278.414978	-0.0009999999311	0	-2.829673804e-06	-1.499498725	-0.0002145825129	1.0
160	278.414978	-0.0009999999311	0	5.623931429e-06	-1.497154236	-0.0002323795634	1.0
[LeftHand]
157	283.2879944	0	0	-32.56412125	-4.432096481	-4.273300171	1.0
158	283.2879944	0	0	-32.58139038	-4.429020405	-4.253600597	1.0
159	283.2879944	0	0	-32.5985527	-4.431598186	-4.239050388	1.0
160	283.2879944	0	0	-32.61532211	-4.438958645	-4.232147217	1.0
[LeftHandThumb1]
157	24.6609993	-15.75	26.8239994	-0.4889889657	2.201390743	4.818541527	1.0
158	24.6609993	-15.75	26.8239994	-0.4889889657	2.201390743	4.818541527	1.0
159	24.6609993	-15.75	26.8239994	-0.4889889657	2.201390743	4.818541527	1.0
160	24.6609993	-15.75	26.8239994	-0.4889889657	2.201390743	4.818541527	1.0
[LeftHandThumb2]
157	32.29800034	-18.64699936	18.64699936	19.88581276	19.96446037	23.26738167	1.0
158	32.29800034	-18.64699936	18.64699936	19.88581276	19.96446037	23.26738167	1.0
159	32.29800034	-18.64699936	18.64699936	19.88581276	19.96446037	23.26738167	1.0
160	32.29800034	-18.64699936	18.64699936	19.88581276	19.96446037	23.26738167	1.0
[LeftHandThumb3]
157	26.52600098	-15.31499958	15.31499958	-13.14535904	5.551738262	7.967928886	1.0
158	26.52600098	-15.31499958	15.31499958	-13.14535904	5.551738262	7.967928886	1.0
159	26.52600098	-15.31499958	15.31499958	-13.14535904	5.551738262	7.967928886	1.0
160	26.52600098	-15.31499958	15.31499958	-13.14535904	5.551738262	7.967928886	1.0
[LeftHandThumb4]
157	19.54599953	-11.28499985	11.28499985	0	0	0	1.0
158	19.54599953	-11.28499985	11.28499985	0	0	0	1.0
159	19.54599953	-11.28499985	11.28499985	0	0	0	1.0
160	19.54599953	-11.28499985	11.28499985	0	0	0	1.0
[LeftHandIndex1]
157	91.09299469	-5.170999527	22.60099792	0.1480516791	-0.9618676901	-7.594518185	1.0
158	91.09299469	-5.170999527	22.60099792	0.1480516791	-0.9618676901	-7.594518185	1.0
159	91.09299469	-5.170999527	22.60099792	0.1480516791	-0.9618676901	-7.594518185	1.0
160	91.09299469	-5.170999527	22.60099792	0.1480516791	-0.9618676901	-7.594518185	1.0
[LeftHandIndex2]
157	36.76399994	0	0	-0.2667043209	1.745171905	-17.37646866	1.0
158	36.76399994	0	0	-0.2667043209	1.745171905	-17.37646866	1.0
159	36.76399994	0	0	-0.2667043209	1.745171905	-17.37646866	1.0
160	36.76399994	0	0	-0.2667043209	1.745171905	-17.37646866	1.0
[LeftHandIndex3]
157	28.83100128	0	0	-0.05742863193	0.817338407	-8.038370132	1.0
158	28.83100128	0	0	-0.05742863193	0.817338407	-8.038370132	1.0
159	28.83100128	0	0	-0.05742863193	0.817338407	-8.038370132	1.0
160	28.83100128	0	0	-0.05742863193	0.817338407	-8.038370132	1.0
[LeftHandIndex4]
157	23.92700005	0	0	0	0	0	1.0
158	23.92700005	0	0	0	0	0	1.0
159	23.92700005	0	0	0	0	0	1.0
160	23.92700005	0	0	0	0	0	1.0
[LeftHandMiddle1]
157	95.33399963	0	0	-0.7942916155	2.538622379	-15.71737862	1.0
158	95.33399963	0	0	-0.7942916155	2.538622379	-15.71737862	1.0
159	95.33399963	0	0	-0.7942916155	2.538622379	-15.71737862	1.0
160	95.33399963	0	0	-0.7942916155	2.538622379	-15.71737862	1.0
[LeftHandMiddle2]
157	36.98199844	0	0	-0.267610997	1.748071074	-17.40625954	1.0
158	36.98199844	0	0	-0.267610997	1.748071074	-17.40625954	1.0
159	36.98199844	0	0	-0.267610997	1.748071074	-17.40625954	1.0
160	36.98199844	0	0	-0.267610997	1.748071074	-17.40625954	1.0
[LeftHandMiddle3]
157	29.50900078	0	0	-0.2992140949	1.84580946	-18.41413307	1.0
158	29.50900078	0	0	-0.2992140949	1.84580946	-18.41413307	1.0
159	29.50900078	0	0	-0.2992140949	1.84580946	-18.41413307	1.0
160	29.50900078	0	0	-0.2992140949	1.84580946	-18.41413307	1.0
[LeftHandMiddle4]
157	28.3390007	0	0	0	0	0	1.0
158	28.3390007	0	0	0	0	0	1.0
159	28.3390007	0	0	0	0	0	1.0
160	28.3390007	0	0	0	0	0	1.0
[LeftHandRing1]
157	91.04499817	-0.4390000105	-18.65100098	-1.184956431	3.436642885	-21.16632462	1.0
158	91.04499817	-0.4390000105	-18.65100098	-1.184956431	3.436642885	-21.16632462	1.0
159	91.04499817	-0.4390000105	-18.65100098	-1.184956431	3.436642885	-21.16632462	1.0
160	91.04499817	-0.4390000105	-18.65100098	-1.184956431	3.436642885	-21.16632462	1.0
[LeftHandRing2]
157	31.54000092	0	0	-0.3849357069	2.085560799	-20.91281319	1.0
158	31.54000092	0	0	-0.3849357069	2.085560799	-20.91281319	1.0
159	31.54000092	0	0	-0.3849357069	2.085560799	-20.91281319	1.0
160	31.54000092	0	0	-0.3849357069	2.085560799	-20.91281319	1.0
[LeftHandRing3]
157	29.37700081	0	0	-0.2818065584	1.792707562	-17.86576271	1.0
158	29.37700081	0	0	-0.2818065584	1.792707562	-17.86576271	1.0
159	29.37700081	0	0	-0.2818065584	1.792707562	-17.86576271	1.0
160	29.37700081	0	0	-0.2818065584	1.792707562	-17.86576271	1.0
[LeftHandRing4]
157	26.47500038	0	0	0	0	0	1.0
158	26.47500038	0	0	0	0	0	1.0
159	26.47500038	0	0	0	0	0	1.0
160	26.47500038	0	0	0	0	0	1.0
[LeftHandPinky1]
157	80.77799988	-4.887000084	-38.06099701	-1.708467126	5.355370045	-27.1653862	1.0
158	80.77799988	-4.887000084	-38.06099701	-1.708467126	5.355370045	-27.1653862	1.0
159	80.77799988	-4.887000084	-38.06099701	-1.708467126	5.355370045	-27.1653862	1.0
160	80.77799988	-4.887000084	-38.06099701	-1.708467126	5.355370045	-27.1653862	1.0
[LeftHandPinky2]
157	36	0	0	-0.2676221728	1.748113751	-17.40663528	1.0
158	36	0	0	-0.2676221728	1.748113751	-17.40663528	1.0
159	36	0	0	-0.2676221728	1.748113751	-17.40663528	1.0
160	36	0	0	-0.2676221728	1.748113751	-17.40663528	1.0
[LeftHandPinky3]
157	21.14200211	0	0	-0.2408525199	1.660349369	-16.50663185	1.0
158	21.14200211	0	0	-0.2408525199	1.660349369	-16.50663185	1.0
159	21.14200211	0	0	-0.2408525199	1.660349369	-16.50663185	1.0
160	21.14200211	0	0	-0.2408525199	1.660349369	-16.50663185	1.0
[LeftHandPinky4]
157	19.75699997	0	0	0	0	0	1.0
158	19.75699997	0	0	0	0	0	1.0
159	19.75699997	0	0	0	0	0	1.0
160	19.75699997	0	0	0	0	0	1.0
[RightShoulder]
157	-45.70000076	109.4620056	-26.28000069	5.255064011	14.57707024	15.92292118	1.0
158	-45.70000076	109.4620056	-26.28000069	5.260603905	14.61384964	15.93627548	1.0
159	-45.70000076	109.4620056	-26.28000069	5.265179157	14.63747597	15.95095921	1.0
160	-45.70000076	109.4620056	-26.28000069	5.269010067	14.64956665	15.9674263	1.0
[RightArm]
157	-105.9280014	-5.248000145	-22.32099915	30.29766846	1.914200187	62.32965469	1.0
158	-105.9280014	-5.248000145	-22.32099915	30.27639961	1.926543593	62.34801102	1.0
159	-105.9280014	-5.248000145	-22.32099915	30.25998688	1.925783873	62.36526108	1.0
160	-105.9280014	-5.248000145	-22.32099915	30.24357796	1.907918215	62.37921143	1.0
[RightForeArm]
157	-278.414978	0	0	-4.004727998e-06	6.680050373	1.447116938e-05	1.0
158	-278.414978	0	0	-1.205293188e-06	6.676875591	8.131125469e-06	1.0
159	-278.414978	0	0	2.774015115e-07	6.676386833	-5.337922175e-06	1.0
160	-278.414978	0	0	-2.236271939e-06	6.689576626	-1.635082481e-05	1.0
[RightHand]
157	-283.2879944	0	0.0009999999311	-20.00796318	1.606067061	6.156911373	1.0
158	-283.2879944	0	0.0009999999311	-20.02122498	1.62646842	6.169707775	1.0
159	-283.2879944	0	0.0009999999311	-20.03583717	1.63559103	6.169184685	1.0
160	-283.2879944	0	0.0009999999311	-20.05303764	1.631120563	6.158792019	1.0
[RightHandPinky1]
157	-80.76699829	-4.885000229	-38.06000137	-1.507175922	-4.696118355	26.50587463	1.0
158	-80.76699829	-4.885000229	-38.06000137	-1.507175922	-4.696118355	26.50587463	1.0
159	-80.76699829	-4.885000229	-38.06000137	-1.507175922	-4.696118355	26.50587463	1.0
160	-80.76699829	-4.885000229	-38.06000137	-1.507175922	-4.696118355	26.50587463	1.0
[RightHandPinky2]
157	-36	0	0.0009999999311	-0.2127676606	-1.388874292	17.43785858	1.0
158	-36	0	0.0009999999311	-0.2127676606	-1.388874292	17.43785858	1.0
159	-36	0	0.0009999999311	-0.2127676606	-1.388874292	17.43785858	1.0
160	-36	0	0.0009999999311	-0.2127676606	-1.388874292	17.43785858	1.0
[RightHandPinky3]
157	-21.14200211	0	0	-0.1919144988	-1.32059598	16.53641129	1.0
158	-21.14200211	0	0	-0.1919144988	-1.32059598	16.53641129	1.0
159	-21.14200211	0	0	-0.1919144988	-1.32059598	16.53641129	1.0
160	-21.14200211	0	0	-0.1919144988	-1.32059598	16.53641129	1.0
[RightHandPinky4]
157	-19.75699997	0	0	0	0	0	1.0
158	-19.75699997	0	0	0	0	0	1.0
159	-19.75699997	0	0	0	0	0	1.0
160	-19.75699997	0	0	0	0	0	1.0
[RightHandRing1]
157	-91.03599548	-0.4390000105	-18.65100098	-1.045235753	-2.883111477	20.47788429	1.0
158	-91.03599548	-0.4390000105	-18.65100098	-1.045235753	-2.883111477	20.47788429	1.0
159	-91.03599548	-0.4390000105	-18.65100098	-1.045235753	-2.883111477	20.47788429	1.0
160	-91.03599548	-0.4390000105	-18.65100098	-1.045235753	-2.883111477	20.47788429	1.0
[RightHandRing2]
157	-31.54000092	0	0	-0.3066971898	-1.658752441	20.94926834	1.0
158	-31.54000092	0	0	-0.3066971898	-1.658752441	20.94926834	1.0
159	-31.54000092	0	0	-0.3066971898	-1.658752441	20.94926834	1.0
160	-31.54000092	0	0	-0.3066971898	-1.658752441	20.94926834	1.0
[RightHandRing3]
157	-29.37700081	0	0	-0.2245407403	-1.425854325	17.89771652	1.0
158	-29.37700081	0	0	-0.2245407403	-1.425854325	17.89771652	1.0
159	-29.37700081	0	0	-0.2245407403	-1.425854325	17.89771652	1.0
160	-29.37700081	0	0	-0.2245407403	-1.425854325	17.89771652	1.0
[RightHandRing4]
157	-26.47500038	0	0	0	0	0	1.0
158	-26.47500038	0	0	0	0	0	1.0
159	-26.47500038	0	0	0	0	0	1.0
160	-26.47500038	0	0	0	0	0	1.0
[RightHandMiddle1]
157	-95.32500458	0	0	-0.7017197609	-2.087752104	15.0152874	1.0
158	-95.32500458	0	0	-0.7017197609	-2.087752104	15.0152874	1.0
159	-95.32500458	0	0	-0.7017197609	-2.087752104	15.0152874	1.0
160	-95.32500458	0	0	-0.7017197609	-2.087752104	15.0152874	1.0
[RightHandMiddle2]
157	-36.98199844	0	0	-0.213228479	-1.390354872	17.43750381	1.0
158	-36.98199844	0	0	-0.213228479	-1.390354872	17.43750381	1.0
159	-36.98199844	0	0	-0.213228479	-1.390354872	17.43750381	1.0
160	-36.98199844	0	0	-0.213228479	-1.390354872	17.43750381	1.0
[RightHandMiddle3]
157	-29.50900078	0	0	-0.2384106964	-1.470119596	18.44692802	1.0
158	-29.50900078	0	0	-0.2384106964	-1.470119596	18.44692802	1.0
159	-29.50900078	0	0	-0.2384106964	-1.470119596	18.44692802	1.0
160	-29.50900078	0	0	-0.2384106964	-1.470119596	18.44692802	1.0
[RightHandMiddle4]
157	-28.3390007	0	0.0009999999311	0	0	0	1.0
158	-28.3390007	0	0.0009999999311	0	0	0	1.0
159	-28.3390007	0	0.0009999999311	0	0	0	1.0
160	-28.3390007	0	0.0009999999311	0	0	0	1.0
[RightHandIndex1]
157	-91.08300018	-5.167999744	22.60099792	0.1884763837	1.25192976	6.825599194	1.0
158	-91.08300018	-5.167999744	22.60099792	0.1884763837	1.25192976	6.825599194	1.0
159	-91.08300018	-5.167999744	22.60099792	0.1884763837	1.25192976	6.825599194	1.0
160	-91.08300018	-5.167999744	22.60099792	0.1884763837	1.25192976	6.825599194	1.0
[RightHandIndex2]
157	-36.76399994	0	0	-0.2125098109	-1.388050556	17.40767097	1.0
158	-36.76399994	0	0	-0.2125098109	-1.388050556	17.40767097	1.0
159	-36.76399994	0	0	-0.2125098109	-1.388050556	17.40767097	1.0
160	-36.76399994	0	0	-0.2125098109	-1.388050556	17.40767097	1.0
[RightHandIndex3]
157	-28.83100128	0	0	-0.04576345533	-0.650116384	8.053516388	1.0
158	-28.83100128	0	0	-0.04576345533	-0.650116384	8.053516388	1.0
159	-28.83100128	0	0	-0.04576345533	-0.650116384	8.053516388	1.0
160	-28.83100128	0	0	-0.04576345533	-0.650116384	8.053516388	1.0
[RightHandIndex4]
157	-23.92700005	0	0	0	0	0	1.0
158	-23.92700005	0	0	0	0	0	1.0
159	-23.92700005	0	0	0	0	0	1.0
160	-23.92700005	0	0	0	0	0	1.0
[RightHandThumb1]
157	-24.64799881	-15.72700024	26.82600021	-1.658462524	-0.2891407609	-4.221328735	1.0
158	-24.64799881	-15.72700024	26.82600021	-1.658462524	-0.2891407609	-4.221328735	1.0
159	-24.64799881	-15.72700024	26.82600021	-1.658462524	-0.2891407609	-4.221328735	1.0
160	-24.64799881	-15.72700024	26.82600021	-1.658462524	-0.2891407609	-4.221328735	1.0
[RightHandThumb2]
157	-32.29800034	-18.64699936	18.64699936	22.25259209	-23.88967514	-24.282444	1.0
158	-32.29800034	-18.64699936	18.64699936	22.25259209	-23.88967514	-24.282444	1.0
159	-32.29800034	-18.64699936	18.64699936	22.25259209	-23.88967514	-24.282444	1.0
160	-32.29800034	-18.64699936	18.64699936	22.25259209	-23.88967514	-24.282444	1.0
[RightHandThumb3]
157	-26.52600098	-15.31399918	15.31399918	-14.47830296	-6.743862152	-11.36570263	1.0
158	-26.52600098	-15.31399918	15.31399918	-14.47830296	-6.743862152	-11.36570263	1.0
159	-26.52600098	-15.31399918	15.31399918	-14.47830296	-6.743862152	-11.36570263	1.0
160	-26.52600098	-15.31399918	15.31399918	-14.47830296	-6.743862152	-11.36570263	1.0
[RightHandThumb4]
157	-19.54599953	-11.28499985	11.28499985	0	0	0	1.0
158	-19.54599953	-11.28499985	11.28499985	0	0	0	1.0
159	-19.54599953	-11.28499985	11.28499985	0	0	0	1.0
160	-19.54599953	-11.28499985	11.28499985	0	0	0	1.0
[LeftUpLeg]
157	82.07800293	-67.51699829	-15.99599934	-7.247392654	16.2177372	7.617614269	1.0
158	82.07800293	-67.51699829	-15.99599934	-7.241411209	16.22994232	7.620618343	1.0
159	82.07800293	-67.51699829	-15.99599934	-7.234971046	16.24313545	7.625309467	1.0
160	82.07800293	-67.51699829	-15.99599934	-7.224564075	16.25869942	7.633256435	1.0
[LeftLeg]
157	0	-443.7049866	2.845999956	11.42170906	1.236321092	4.61627388	1.0
158	0	-443.7049866	2.845999956	11.44723129	1.237407088	4.611543655	1.0
159	0	-443.7049866	2.845999956	11.48145294	1.226105452	4.605585575	1.0
160	0	-443.7049866	2.845999956	11.51303291	1.206359625	4.599221706	1.0
[LeftFoot]
157	0	-444.2789917	-29.8219986	1.358096957	0.7062541842	-7.400589943	1.0
158	0	-444.2789917	-29.8219986	1.340500474	0.7058430314	-7.400174618	1.0
159	0	-444.2789917	-29.8219986	1.321444154	0.7053047419	-7.400354385	1.0
160	0	-444.2789917	-29.8219986	1.305773735	0.7047566772	-7.399707794	1.0
[LeftToeBase]
157	0	-87.28699493	107.1060028	-4.915421486	1.437489573e-06	3.745322147e-06	1.0
158	0	-87.28699493	107.1060028	-4.912395477	-1.113429062e-05	8.989791809e-07	1.0
159	0	-87.28699493	107.1060028	-4.915504456	-1.836568845e-05	-1.88845604e-06	1.0
160	0	-87.28699493	107.1060028	-4.923729897	-1.258130305e-05	-2.952338264e-06	1.0
[RightUpLeg]
157	-82.07800293	-67.51699829	-15.99599934	0.6774098277	-10.62924099	3.075469494	1.0
158	-82.07800293	-67.51699829	-15.99599934	0.6795932055	-10.62568378	3.071336985	1.0
159	-82.07800293	-67.51699829	-15.99599934	0.6833745837	-10.62234402	3.066612244	1.0
160	-82.07800293	-67.51699829	-15.99599934	0.6979954839	-10.62180996	3.062400341	1.0
[RightLeg]
157	0	-443.7049866	2.861999989	7.920928478	-9.263019562	-4.578056335	1.0
158	0	-443.7049866	2.861999989	7.945503712	-9.26063633	-4.590990067	1.0
159	0	-443.7049866	2.861999989	7.980394363	-9.256492615	-4.604712009	1.0
160	0	-443.7049866	2.861999989	8.002195358	-9.252685547	-4.612628937	1.0
[RightFoot]
157	0	-444.2770081	-29.83799934	-4.386606216	-1.081413388	3.235178709	1.0
158	0	-444.2770081	-29.83799934	-4.403313637	-1.072225451	3.245147467	1.0
159	0	-444.2770081	-29.83799934	-4.425796986	-1.068150163	3.255540133	1.0
160	0	-444.2770081	-29.83799934	-4.442530155	-1.063618422	3.262445211	1.0
[RightToeBase]
157	0	-87.28699493	107.1060028	-6.91091156	1.121761306e-05	1.061171247e-06	1.0
158	0	-87.28699493	107.1060028	-6.911138058	-3.293579539e-06	2.569587707e-07	1.0
159	0	-87.28699493	107.1060028	-6.914301872	-1.198580321e-05	9.413768112e-07	1.0
160	0	-87.28699493	107.1060028	-6.920116425	-1.120878278e-05	2.680210173e-06	1.0
[EndOfFile]
